{
  "accessors": [
    {
      "bufferView": 2,
      "componentType": 5126,
      "count": 65532,
      "max": [
        1.8679298162460327,
        0.6366459131240845,
        1.6303011178970337
      ],
      "min": [
        -1.599068522453308,
        -0.6053217649459839,
        0.10594133287668228
      ],
      "type": "VEC3"
    },
    {
      "bufferView": 2,
      "byteOffset": 786384,
      "componentType": 5126,
      "count": 65532,
      "max": [
        0.9991190433502197,
        1.0,
        0.9999957084655762
      ],
      "min": [
        -0.9991190433502197,
        -1.0,
        -0.9999957084655762
      ],
      "type": "VEC3"
    },
    {
      "bufferView": 3,
      "componentType": 5126,
      "count": 65532,
      "max": [
        0.9946181774139404,
        0.9904173016548157,
        0.9996428489685059,
        1.0
      ],
      "min": [
        -0.9964626431465149,
        -0.9999569058418274,
        -0.9991450905799866,
        -1.0
      ],
      "type": "VEC4"
    },
    {
      "bufferView": 1,
      "componentType": 5126,
      "count": 65532,
      "max": [
        0.9699381589889526,
        0.97837233543396
      ],
      "min": [
        0.07352501153945923,
        0.0
      ],
      "type": "VEC2"
    },
    {
      "bufferView": 1,
      "byteOffset": 524256,
      "componentType": 5126,
      "count": 65532,
      "max": [
        0.9699381589889526,
        0.97837233543396
      ],
      "min": [
        0.07352501153945923,
        0.0
      ],
      "type": "VEC2"
    },
    {
      "bufferView": 0,
      "componentType": 5125,
      "count": 198132,
      "type": "SCALAR"
    },
    {
      "bufferView": 2,
      "byteOffset": 1572768,
      "componentType": 5126,
      "count": 65532,
      "max": [
        1.8975731134414673,
        0.6346160173416138,
        1.6602383852005005
      ],
      "min": [
        -1.938162088394165,
        -0.7159857153892517,
        0.1278011053800583
      ],
      "type": "VEC3"
    },
    {
      "bufferView": 2,
      "byteOffset": 2359152,
      "componentType": 5126,
      "count": 65532,
      "max": [
        0.9992533922195435,
        1.0,
        0.9999996423721313
      ],
      "min": [
        -0.9999372959136963,
        -1.0,
        -0.9999996423721313
      ],
      "type": "VEC3"
    },
    {
      "bufferView": 3,
      "byteOffset": 1048512,
      "componentType": 5126,
      "count": 65532,
      "max": [
        0.9998664855957031,
        1.0,
        0.9999995231628418,
        1.0
      ],
      "min": [
        -0.9962463974952698,
        -1.0,
        -0.9999892711639404,
        -1.0
      ],
      "type": "VEC4"
    },
    {
      "bufferView": 1,
      "byteOffset": 1048512,
      "componentType": 5126,
      "count": 65532,
      "max": [
        0.9742165803909302,
        0.9899590611457825
      ],
      "min": [
        0.0,
        0.0
      ],
      "type": "VEC2"
    },
    {
      "bufferView": 1,
      "byteOffset": 1572768,
      "componentType": 5126,
      "count": 65532,
      "max": [
        0.9742165803909302,
        0.9899590611457825
      ],
      "min": [
        0.0,
        0.0
      ],
      "type": "VEC2"
    },
    {
      "bufferView": 0,
      "byteOffset": 792528,
      "componentType": 5125,
      "count": 269127,
      "type": "SCALAR"
    },
    {
      "bufferView": 2,
      "byteOffset": 3145536,
      "componentType": 5126,
      "count": 65532,
      "max": [
        1.6750917434692383,
        0.5895777344703674,
        1.6303011178970337
      ],
      "min": [
        -1.8287889957427979,
        -0.6349265575408936,
        0.1311928629875183
      ],
      "type": "VEC3"
    },
    {
      "bufferView": 2,
      "byteOffset": 3931920,
      "componentType": 5126,
      "count": 65532,
      "max": [
        0.9999990463256836,
        0.9999239444732666,
        0.9999986886978149
      ],
      "min": [
        -0.9999995231628418,
        -0.9999547004699707,
        -0.9999991655349731
      ],
      "type": "VEC3"
    },
    {
      "bufferView": 3,
      "byteOffset": 2097024,
      "componentType": 5126,
      "count": 65532,
      "max": [
        0.9999668002128601,
        0.999991774559021,
        0.9999896883964539,
        1.0
      ],
      "min": [
        -0.9999993443489075,
        -0.9999969005584717,
        -0.9999827742576599,
        1.0
      ],
      "type": "VEC4"
    },
    {
      "bufferView": 1,
      "byteOffset": 2097024,
      "componentType": 5126,
      "count": 65532,
      "max": [
        0.9973495006561279,
        0.9987244606018066
      ],
      "min": [
        0.015642575919628143,
        0.0
      ],
      "type": "VEC2"
    },
    {
      "bufferView": 1,
      "byteOffset": 2621280,
      "componentType": 5126,
      "count": 65532,
      "max": [
        0.9973495006561279,
        0.9987244606018066
      ],
      "min": [
        0.015642575919628143,
        0.0
      ],
      "type": "VEC2"
    },
    {
      "bufferView": 0,
      "byteOffset": 1869036,
      "componentType": 5125,
      "count": 232509,
      "type": "SCALAR"
    },
    {
      "bufferView": 2,
      "byteOffset": 4718304,
      "componentType": 5126,
      "count": 65532,
      "max": [
        1.8780937194824219,
        0.6395683884620667,
        1.592644214630127
      ],
      "min": [
        -1.9294427633285522,
        -0.6944673657417297,
        0.1050584614276886
      ],
      "type": "VEC3"
    },
    {
      "bufferView": 2,
      "byteOffset": 5504688,
      "componentType": 5126,
      "count": 65532,
      "max": [
        0.9999526739120483,
        1.0,
        1.0
      ],
      "min": [
        -0.999924898147583,
        -1.0,
        -1.0
      ],
      "type": "VEC3"
    },
    {
      "bufferView": 3,
      "byteOffset": 3145536,
      "componentType": 5126,
      "count": 65532,
      "max": [
        1.0,
        1.0,
        1.0,
        1.0
      ],
      "min": [
        -1.0,
        -1.0,
        -1.0,
        -1.0
      ],
      "type": "VEC4"
    },
    {
      "bufferView": 1,
      "byteOffset": 3145536,
      "componentType": 5126,
      "count": 65532,
      "max": [
        0.999848484992981,
        0.9981645345687866
      ],
      "min": [
        0.0,
        0.0
      ],
      "type": "VEC2"
    },
    {
      "bufferView": 1,
      "byteOffset": 3669792,
      "componentType": 5126,
      "count": 65532,
      "max": [
        0.999848484992981,
        0.9981645345687866
      ],
      "min": [
        0.0,
        0.0
      ],
      "type": "VEC2"
    },
    {
      "bufferView": 0,
      "byteOffset": 2799072,
      "componentType": 5125,
      "count": 323910,
      "type": "SCALAR"
    },
    {
      "bufferView": 2,
      "byteOffset": 6291072,
      "componentType": 5126,
      "count": 63842,
      "max": [
        1.8407511711120605,
        0.6206235289573669,
        1.6246657371520996
      ],
      "min": [
        -1.6927380561828613,
        -0.6818984150886536,
        0.10412441939115524
      ],
      "type": "VEC3"
    },
    {
      "bufferView": 2,
      "byteOffset": 7057176,
      "componentType": 5126,
      "count": 63842,
      "max": [
        0.9999802112579346,
        0.9999686479568481,
        0.999957799911499
      ],
      "min": [
        -0.9998704195022583,
        -0.9999804496765137,
        -0.9999524354934692
      ],
      "type": "VEC3"
    },
    {
      "bufferView": 3,
      "byteOffset": 4194048,
      "componentType": 5126,
      "count": 63842,
      "max": [
        0.9949061274528503,
        0.9999974966049194,
        0.9999997615814209,
        1.0
      ],
      "min": [
        -0.9995350241661072,
        -0.9999992847442627,
        -0.99994957447052,
        -1.0
      ],
      "type": "VEC4"
    },
    {
      "bufferView": 1,
      "byteOffset": 4194048,
      "componentType": 5126,
      "count": 63842,
      "max": [
        0.9999999403953552,
        0.9995834827423096
      ],
      "min": [
        0.0,
        0.0
      ],
      "type": "VEC2"
    },
    {
      "bufferView": 1,
      "byteOffset": 4704784,
      "componentType": 5126,
      "count": 63842,
      "max": [
        0.9999999403953552,
        0.9995834827423096
      ],
      "min": [
        0.0,
        0.0
      ],
      "type": "VEC2"
    },
    {
      "bufferView": 0,
      "byteOffset": 4094712,
      "componentType": 5125,
      "count": 298071,
      "type": "SCALAR"
    }
  ],
  "asset": {
    "extras": {
      "author": "Romain DI CORATO (https://sketchfab.com/dicorato.romain)",
      "license": "CC-BY-4.0 (http://creativecommons.org/licenses/by/4.0/)",
      "source": "https://sketchfab.com/3d-models/adidas-ozelia-bd99ae674f724ca690198f22764081f8",
      "title": "Adidas Ozelia"
    },
    "generator": "Sketchfab-12.66.0",
    "version": "2.0"
  },
  "bufferViews": [
    {
      "buffer": 0,
      "byteLength": 5286996,
      "name": "floatBufferViews",
      "target": 34963
    },
    {
      "buffer": 0,
      "byteLength": 5215520,
      "byteOffset": 5286996,
      "byteStride": 8,
      "name": "floatBufferViews",
      "target": 34962
    },
    {
      "buffer": 0,
      "byteLength": 7823280,
      "byteOffset": 10502516,
      "byteStride": 12,
      "name": "floatBufferViews",
      "target": 34962
    },
    {
      "buffer": 0,
      "byteLength": 5215520,
      "byteOffset": 18325796,
      "byteStride": 16,
      "name": "floatBufferViews",
      "target": 34962
    }
  ],
  "buffers": [
    {
      "byteLength": 23541316,
      "uri": "scene.bin"
    }
  ],
  "images": [
    {
      "uri": "textures/Baked_baseColor.png"
    },
    {
      "uri": "textures/Baked_metallicRoughness.png"
    },
    {
      "uri": "textures/Baked_normal.png"
    }
  ],
  "materials": [
    {
      "doubleSided": true,
      "name": "Baked",
      "normalTexture": {
        "index": 2,
        "scale": 0.7617316941186485
      },
      "occlusionTexture": {
        "index": 1,
        "strength": 0.7434911746286534
      },
      "pbrMetallicRoughness": {
        "baseColorFactor": [
          0.5489256334020393,
          0.5489256334020393,
          0.5489256334020393,
          1.0
        ],
        "baseColorTexture": {
          "index": 0
        },
        "metallicFactor": 0.0,
        "metallicRoughnessTexture": {
          "index": 1
        },
        "roughnessFactor": 0.6279678845253513
      }
    }
  ],
  "meshes": [
    {
      "name": "Baked_Baked_0",
      "primitives": [
        {
          "attributes": {
            "NORMAL": 1,
            "POSITION": 0,
            "TANGENT": 2,
            "TEXCOORD_0": 3,
            "TEXCOORD_1": 4
          },
          "indices": 5,
          "material": 0,
          "mode": 4
        }
      ]
    },
    {
      "name": "Baked_Baked_0",
      "primitives": [
        {
          "attributes": {
            "NORMAL": 7,
            "POSITION": 6,
            "TANGENT": 8,
            "TEXCOORD_0": 9,
            "TEXCOORD_1": 10
          },
          "indices": 11,
          "material": 0,
          "mode": 4
        }
      ]
    },
    {
      "name": "Baked_Baked_0",
      "primitives": [
        {
          "attributes": {
            "NORMAL": 13,
            "POSITION": 12,
            "TANGENT": 14,
            "TEXCOORD_0": 15,
            "TEXCOORD_1": 16
          },
          "indices": 17,
          "material": 0,
          "mode": 4
        }
      ]
    },
    {
      "name": "Baked_Baked_0",
      "primitives": [
        {
          "attributes": {
            "NORMAL": 19,
            "POSITION": 18,
            "TANGENT": 20,
            "TEXCOORD_0": 21,
            "TEXCOORD_1": 22
          },
          "indices": 23,
          "material": 0,
          "mode": 4
        }
      ]
    },
    {
      "name": "Baked_Baked_0",
      "primitives": [
        {
          "attributes": {
            "NORMAL": 25,
            "POSITION": 24,
            "TANGENT": 26,
            "TEXCOORD_0": 27,
            "TEXCOORD_1": 28
          },
          "indices": 29,
          "material": 0,
          "mode": 4
        }
      ]
    }
  ],
  "nodes": [
    {
      "children": [
        1
      ],
      "matrix": [
        1.0,
        0.0,
        0.0,
        0.0,
        0.0,
        2.220446049250313e-16,
        -1.0,
        0.0,
        0.0,
        1.0,
        2.220446049250313e-16,
        0.0,
        0.0,
        0.0,
        0.0,
        1.0
      ],
      "name": "Sketchfab_model"
    },
    {
      "children": [
        2
      ],
      "matrix": [
        0.009999999776482582,
        0.0,
        0.0,
        0.0,
        0.0,
        0.0,
        0.009999999776482582,
        0.0,
        0.0,
        -0.009999999776482582,
        0.0,
        0.0,
        0.0,
        0.0,
        0.0,
        1.0
      ],
      "name": "6dca11e9df8545258cf81515cd56092e.fbx"
    },
    {
      "children": [
        3
      ],
      "name": "RootNode"
    },
    {
      "children": [
        4,
        5,
        6,
        7,
        8
      ],
      "matrix": [
        100.0,
        0.0,
        0.0,
        0.0,
        -0.0,
        -1.629206793918314e-05,
        -99.99999999999868,
        0.0,
        0.0,
        99.99999999999868,
        -1.629206793918314e-05,
        0.0,
        -0.903452455997467,
        -12.304555892944336,
        -1.7154628038406372,
        1.0
      ],
      "name": "Baked"
    },
    {
      "mesh": 0,
      "name": "Baked_Baked_0"
    },
    {
      "mesh": 1,
      "name": "Baked_Baked_0"
    },
    {
      "mesh": 2,
      "name": "Baked_Baked_0"
    },
    {
      "mesh": 3,
      "name": "Baked_Baked_0"
    },
    {
      "mesh": 4,
      "name": "Baked_Baked_0"
    }
  ],
  "samplers": [
    {
      "magFilter": 9729,
      "minFilter": 9987,
      "wrapS": 10497,
      "wrapT": 10497
    }
  ],
  "scene": 0,
  "scenes": [
    {
      "name": "Sketchfab_Scene",
      "nodes": [
        0
      ]
    }
  ],
  "textures": [
    {
      "sampler": 0,
      "source": 0
    },
    {
      "sampler": 0,
      "source": 1
    },
    {
      "sampler": 0,
      "source": 2
    }
  ]
}
